<?xml version="1.0" encoding="utf-8"?><!-- Uploaded to: SVG Repo, www.svgrepo.com, Generator: SVG Repo Mixer Tools -->
<svg version="1.1" id="Uploaded to svgrepo.com" xmlns="http://www.w3.org/2000/svg" xmlns:xlink="http://www.w3.org/1999/xlink" 
	 width="800px" height="800px" viewBox="0 0 32 32" xml:space="preserve">
<style type="text/css">
	.puchipuchi_een{fill:#111918;}
</style>
<path class="puchipuchi_een" d="M9.285,2.029l-6.57,3.942C1.772,6.537,1,7.9,1,9v20c0,1.1,0.772,1.537,1.715,0.971l6.57-3.942
	C10.228,25.463,11,24.1,11,23V3C11,1.9,10.228,1.463,9.285,2.029z M4,23c-0.552,0-1-0.448-1-1s0.448-1,1-1s1,0.448,1,1
	S4.552,23,4,23z M6,20c-0.552,0-1-0.448-1-1s0.448-1,1-1s1,0.448,1,1S6.552,20,6,20z M9,17c-0.552,0-1-0.448-1-1s0.448-1,1-1
	s1,0.448,1,1S9.552,17,9,17z M18.4,5.8l-4.8-3.6C12.72,1.54,12,1.9,12,3v9c0.552,0,1,0.448,1,1s-0.448,1-1,1v9
	c0,1.1,0.72,2.54,1.6,3.2l4.8,3.6c0.88,0.66,1.6,0.3,1.6-0.8V14c-0.552,0-1-0.448-1-1s0.448-1,1-1V9C20,7.9,19.28,6.46,18.4,5.8z
	 M16,13c-0.552,0-1-0.448-1-1s0.448-1,1-1s1,0.448,1,1S16.552,13,16,13z M29.285,2.029l-6.57,3.942C21.772,6.537,21,7.9,21,9v20
	c0,1.1,0.772,1.537,1.715,0.971l6.57-3.942C30.228,25.463,31,24.1,31,23V3C31,1.9,30.228,1.463,29.285,2.029z M23,15
	c-0.552,0-1-0.448-1-1s0.448-1,1-1s1,0.448,1,1S23.552,15,23,15z M29.707,19.293c0.391,0.391,0.391,1.023,0,1.414
	C29.512,20.902,29.256,21,29,21s-0.512-0.098-0.707-0.293L27,19.414l-1.293,1.293C25.512,20.902,25.256,21,25,21
	s-0.512-0.098-0.707-0.293c-0.391-0.391-0.391-1.023,0-1.414L25.586,18l-1.293-1.293c-0.391-0.391-0.391-1.023,0-1.414
	s1.023-0.391,1.414,0L27,16.586l1.293-1.293c0.391-0.391,1.023-0.391,1.414,0s0.391,1.023,0,1.414L28.414,18L29.707,19.293z"/>
</svg>